<?xml version="1.0" standalone="no"?>
<!DOCTYPE svg PUBLIC "-//W3C//DTD SVG 1.1//EN" "http://www.w3.org/Graphics/SVG/1.1/DTD/svg11.dtd" >
<svg xmlns="http://www.w3.org/2000/svg" xmlns:xlink="http://www.w3.org/1999/xlink" version="1.1">
<metadata>
Created by FontForge 20170731 at Sat Apr 10 03:41:06 2021
 By Aleksey,,,
Deutschlander (c) Sharkshock 2015. All Rights Reserved
</metadata>
<defs>
<font id="Deutschlander" horiz-adv-x="503" >
  <font-face 
    font-family="Deutschlander"
    font-weight="400"
    font-stretch="normal"
    units-per-em="2048"
    panose-1="2 0 5 0 0 0 0 0 0 0"
    ascent="1638"
    descent="-410"
    x-height="1005"
    cap-height="1341"
    bbox="0 -453 1005 1704"
    underline-thickness="150"
    underline-position="-442"
    unicode-range="U+000D-25FC"
  />
<missing-glyph horiz-adv-x="748" 
d="M68 0v1365h544v-1365h-544zM136 68h408v1229h-408v-1229z" />
    <glyph glyph-name=".notdef" horiz-adv-x="748" 
d="M68 0v1365h544v-1365h-544zM136 68h408v1229h-408v-1229z" />
    <glyph glyph-name=".null" horiz-adv-x="0" 
 />
    <glyph glyph-name="uni000D" unicode="&#xd;" horiz-adv-x="508" 
 />
    <glyph glyph-name="uni001D" horiz-adv-x="0" 
 />
    <glyph glyph-name="uni001D" horiz-adv-x="0" 
 />
    <glyph glyph-name="space" unicode=" " horiz-adv-x="131" 
 />
    <glyph glyph-name="exclam" unicode="!" horiz-adv-x="218" 
d="M0 0v168h168v-168h-168zM0 319h168v1022h-168v-1022z" />
    <glyph glyph-name="quotedbl" unicode="&#x22;" horiz-adv-x="453" 
d="M0 1006h168v335h-168v-335zM235 1006h168v335h-168v-335z" />
    <glyph glyph-name="numbersign" unicode="#" horiz-adv-x="534" 
d="M0 442l7 77h89l16 183h-89l6 77h90l22 248h76l-21 -248h130l21 248h77l-22 -248h82l-7 -77h-81l-16 -183h81l-6 -77h-82l-25 -284h-77l25 284h-130l-25 -284h-76l25 284h-90zM173 519h130l16 183h-130z" />
    <glyph glyph-name="dollar" unicode="$" horiz-adv-x="346" 
d="M0 642q5 -56 47 -94q21 -19 45 -28v-51h110v51q24 9 45 28q42 38 47 95v168q2 40 -14 79q-13 34 -38 55q-31 24 -78 24h-20q-15 0 -24 11q-9 10 -9 25v165q0 16 11 26q10 11 25 11t26 -11q10 -10 10 -26v-160h111v148q0 60 -43 103q-22 23 -50 34l1 48h-110v-49
q-27 -10 -49 -33q-43 -43 -43 -103v-164q0 -56 38 -98q43 -49 106 -49h7q32 0 32 -36v-167q0 -15 -10 -26q-11 -10 -26 -10t-25 10q-11 11 -11 26v155h-111v-157z" />
    <glyph glyph-name="percent" unicode="%" horiz-adv-x="659" 
d="M0 912q0 -47 34 -81t81 -34q48 0 82 34t34 81v335q0 47 -34 81t-82 34q-47 0 -81 -34t-34 -81v-335zM87 902v355q0 11 8 20q9 8 20 8q12 0 20 -8q9 -9 9 -20v-355q0 -11 -9 -20q-8 -8 -20 -8q-11 0 -20 8q-8 9 -8 20zM111 183l303 1181h77l-303 -1181h-77zM378 307
q0 -48 34 -81q34 -34 82 -34q47 0 81 34q34 33 34 81v334q0 48 -34 82t-81 34q-48 0 -82 -34t-34 -82v-334zM465 297v354q0 12 9 21q8 8 20 8q11 0 20 -8q8 -9 8 -21v-354q0 -12 -8 -20q-9 -8 -20 -8q-12 0 -20 8q-9 8 -9 20z" />
    <glyph glyph-name="ampersand" unicode="&#x26;" horiz-adv-x="573" 
d="M0 249q0 -106 64 -182q64 -75 155 -75q77 0 138 57q60 -57 138 -57q13 0 28 2v174q-13 -9 -28 -9q-38 0 -51 44q-5 14 -6 31v10v342h70v166h-261q-46 0 -68 22q-17 18 -17 48v293q0 28 16 47q17 20 41 20t40 -20q17 -19 17 -47v-286h161l1 15v248q0 106 -64 181
q-64 76 -155 76t-155 -76q-64 -75 -64 -181v-248q0 -99 57 -172q-57 -74 -57 -174v-249zM162 226v295q0 55 62 65h52v-360q0 -28 -17 -47q-16 -20 -40 -20t-41 20q-16 19 -16 47z" />
    <glyph glyph-name="quotesingle" unicode="'" horiz-adv-x="218" 
d="M0 1006h168v335h-168v-335z" />
    <glyph glyph-name="parenleft" unicode="(" horiz-adv-x="296" 
d="M0 202q0 -93 66 -160q67 -66 160 -66l12 1l8 1v153l-4 -1l-4 -2q-6 -1 -12 -1q-23 0 -39 16t-16 39v974q0 23 16 39q16 17 39 17q6 0 12 -2l4 -1l4 -2v154l-8 1h-12q-93 0 -160 -66q-66 -67 -66 -160v-934z" />
    <glyph glyph-name="parenright" unicode=")" horiz-adv-x="296" 
d="M0 -22l8 -1l12 -1q94 0 160 66q66 67 66 160v934q0 93 -66 160q-66 66 -160 66h-12l-8 -1v-154l4 2l4 1q6 2 12 2q23 0 40 -17q16 -16 16 -39v-974q0 -23 -16 -39q-17 -16 -40 -16q-5 0 -12 1l-4 2l-4 1v-153z" />
    <glyph glyph-name="asterisk" unicode="*" horiz-adv-x="446" 
d="M0 1106v74h109l-77 77l51 51l78 -77v110h73v-109l78 77l52 -52l-76 -77h108v-74h-110l77 -78l-51 -51l-78 78v-110h-73v109l-77 -77l-52 52l77 77h-109z" />
    <glyph glyph-name="plus" unicode="+" horiz-adv-x="446" 
d="M0 666v74h161v161h73v-161h162v-74h-162v-161h-73v161h-161z" />
    <glyph glyph-name="comma" unicode="," horiz-adv-x="218" 
d="M0 0v168h168v-168l-62 -70h-64l20 70h-62z" />
    <glyph glyph-name="hyphen" unicode="-" horiz-adv-x="339" 
d="M0 666v74h289v-74h-289z" />
    <glyph glyph-name="period" unicode="." horiz-adv-x="218" 
d="M0 0v168h168v-168h-168z" />
    <glyph glyph-name="slash" unicode="/" horiz-adv-x="378" 
d="M0 -100l170 1541h158l-170 -1541h-158z" />
    <glyph glyph-name="zero" unicode="0" 
d="M0 202q0 -93 66 -160q67 -66 160 -66q94 0 160 66q67 67 67 160v934q0 93 -67 160q-66 66 -160 66q-93 0 -160 -66q-66 -67 -66 -160v-934zM170 182v974q0 23 17 39q16 17 39 17t40 -17q16 -16 16 -39v-974q0 -23 -16 -39q-17 -16 -40 -16t-39 16q-17 16 -17 39z" />
    <glyph glyph-name="one" unicode="1" horiz-adv-x="278" 
d="M0 1173h60v-1173h168v1341h-228v-168z" />
    <glyph glyph-name="two" unicode="2" horiz-adv-x="505" 
d="M0 0h453v168h-285v125q0 59 47 130q35 53 93 109l15 15q105 111 125 262q6 44 6 90l1 96l-1 96v48q0 94 -66 160t-160 66q-93 0 -160 -66q-66 -66 -66 -160v-303h170v323q0 23 17 39q16 17 39 17t40 -17q16 -16 16 -39v-71l1 -72q0 -85 -1 -142q-3 -130 -101 -230
q-97 -99 -144 -197q-39 -83 -39 -260v-5v-182z" />
    <glyph glyph-name="three" unicode="3" horiz-adv-x="497" 
d="M0 239q0 -109 65 -186q66 -77 158 -77q93 0 159 77q65 77 65 186v254q0 102 -59 178q59 75 59 176v253q0 108 -65 185q-66 77 -159 77q-92 0 -158 -77q-65 -77 -65 -185q0 -263 1 -269h164v292q0 29 17 49t41 20q25 0 42 -20t17 -49v-299q0 -31 -18 -49q-22 -23 -69 -23
v-167q87 0 87 -68v-301q0 -29 -17 -49t-42 -20q-24 0 -41 20t-17 49v252h-165v-229z" />
    <glyph glyph-name="four" unicode="4" horiz-adv-x="547" 
d="M0 585h284v-585h168v585h45v167h-45v589h-168v-589h-116v589h-168v-756z" />
    <glyph glyph-name="five" unicode="5" horiz-adv-x="497" 
d="M0 239q0 -109 66 -186q65 -77 158 -77q92 0 158 77q65 77 65 186v411q0 144 -65 216q-49 55 -115 55q-65 0 -99 -1v251h273v168h-441v-586h99h85h18l17 -1q20 -1 32 -9q31 -18 31 -87v-440q0 -29 -17 -49t-41 -20t-42 20q-17 20 -17 49v366h-165v-343z" />
    <glyph glyph-name="six" unicode="6" 
d="M0 202q0 -93 66 -160q67 -66 160 -66q94 0 160 66q67 67 67 160v613q0 93 -67 160q-66 66 -160 66q-27 0 -55 -7v120q0 23 16 40q16 16 39 16t40 -16q16 -17 16 -40v-54h171v34q0 94 -67 160q-66 67 -160 67q-93 0 -160 -67q-66 -66 -66 -160v-932zM171 182v652
q0 24 16 40t39 16t40 -16q16 -16 16 -40v-652q0 -23 -16 -39q-17 -16 -40 -16t-39 16t-16 39z" />
    <glyph glyph-name="seven" unicode="7" horiz-adv-x="427" 
d="M0 1173h190l-130 -1173h168l149 1341h-377v-168z" />
    <glyph glyph-name="eight" unicode="8" horiz-adv-x="497" 
d="M0 237q0 -110 65 -187q66 -77 159 -77q92 0 158 77q65 77 65 187v254q0 104 -60 180q60 75 60 178v253q0 108 -65 185q-66 76 -158 76q-93 0 -159 -76q-65 -77 -65 -185v-253q0 -103 60 -178q-60 -76 -60 -180v-254zM165 213v302q0 28 17 49q17 20 42 20q24 0 41 -20
q17 -21 17 -49v-302q0 -28 -17 -49q-17 -20 -41 -20q-25 0 -42 20q-17 21 -17 49zM165 825v300q0 28 17 48t42 20q24 0 41 -20t17 -48v-300q0 -28 -17 -48t-41 -20q-25 0 -42 20t-17 48z" />
    <glyph glyph-name="nine" unicode="9" 
d="M0 202q0 -93 66 -160q67 -66 160 -66q94 0 160 66q67 67 67 160v932q0 94 -67 160q-66 67 -160 67q-93 0 -160 -67q-66 -66 -66 -160v-612q0 -94 66 -160q67 -66 160 -66q28 0 56 7v-121q0 -23 -16 -39q-17 -16 -40 -16t-39 16q-17 16 -17 39v55h-170v-35zM170 502v652
q0 23 17 40q16 16 39 16t40 -16q16 -17 16 -40v-652q0 -23 -16 -39q-17 -17 -40 -17t-39 17q-17 16 -17 39z" />
    <glyph glyph-name="colon" unicode=":" horiz-adv-x="218" 
d="M0 0v168h168v-168h-168zM0 598v168h168v-168h-168z" />
    <glyph glyph-name="semicolon" unicode=";" horiz-adv-x="218" 
d="M0 0v168h168v-168l-62 -70h-64l20 70h-62zM0 598v168h168v-168h-168z" />
    <glyph glyph-name="less" unicode="&#x3c;" horiz-adv-x="446" 
d="M0 666v74l396 150v-74l-298 -113l298 -113v-74z" />
    <glyph glyph-name="equal" unicode="=" horiz-adv-x="446" 
d="M0 566v74h396v-74h-396zM0 756v74h396v-74h-396z" />
    <glyph glyph-name="greater" unicode="&#x3e;" horiz-adv-x="446" 
d="M0 516v74l298 113l-298 113v74l396 -150v-74z" />
    <glyph glyph-name="question" unicode="?" 
d="M0 832h171v325q0 23 16 39t39 16t40 -16q16 -16 16 -39v-342v4q0 -46 -6 -66q-5 -19 -23 -38l-48 -45q-21 -20 -43 -56q-19 -31 -29 -65q-14 -42 -14 -86v-144h168v170q0 27 18 44l110 140q21 27 31 70q6 33 6 77l1 317q0 93 -67 160q-66 66 -160 66q-93 0 -160 -66
q-66 -67 -66 -160v-305zM119 0v168h168v-168h-168z" />
    <glyph glyph-name="at" unicode="@" horiz-adv-x="725" 
d="M0 421q0 -133 99 -228q99 -93 238 -93v110q-91 0 -157 62q-65 62 -65 149v431q0 87 65 149q66 63 157 63q92 0 158 -63q65 -62 65 -149v-250q0 -104 -20 -141q-7 -14 -16 -19q-3 -1 -7 -1h-35v376q0 57 -42 97t-102 40q-59 0 -101 -40q-43 -40 -43 -97v-61h109v73
q0 14 10 24q11 10 25 10q15 0 25 -10q11 -10 11 -24v-85l-23 -13l-23 -12l-23 -13l-6 -3l-7 -4q-8 -5 -15 -10q-19 -12 -33 -25q-40 -37 -48 -81q-2 -11 -2 -20v-109q0 -40 23 -74q22 -32 58 -49q30 -14 63 -14t63 13h111q97 0 136 89q27 63 27 183v250q0 133 -99 228
q-99 94 -239 94q-139 0 -238 -94q-99 -95 -99 -228v-431zM303 441v98q-1 11 5 27q6 14 17 25q14 15 35 26l7 4l7 4v-184q0 -3 -1 -7q-2 -8 -7 -14l-2 -1l-2 -2l-3 -2l-2 -2l-3 -2l-3 -1l-4 -1h-2l-7 -1q-14 0 -25 10q-10 10 -10 23z" />
    <glyph glyph-name="A" unicode="A" horiz-adv-x="553" 
d="M0 0h168l19 152h129l19 -152h168l-168 1341h-167zM208 319l43 352l44 -352h-87z" />
    <glyph glyph-name="B" unicode="B" horiz-adv-x="479" 
d="M0 0h269q119 0 147 76q11 31 13 84v49v26l-1 271q0 113 -70 191q70 78 70 191l1 215v26v50q-2 53 -12 84q-25 78 -130 78h-287v-1341zM168 169v429h37q15 1 29 -7q29 -16 29 -62v-291q0 -44 -29 -61q-15 -9 -30 -8h-36zM168 795v374h37q15 1 29 -7q29 -17 29 -62v-235
q0 -45 -29 -62q-15 -8 -30 -8h-36z" />
    <glyph glyph-name="C" unicode="C" 
d="M0 203q0 -93 66 -160q67 -66 160 -66q94 0 160 66q67 67 67 160v306h-171v-326q0 -23 -16 -39q-17 -16 -40 -16t-39 16q-17 16 -17 39v974q0 23 17 39q16 17 39 17t40 -17q16 -16 16 -39v-324h171v304q0 93 -67 160q-66 66 -160 66q-93 0 -160 -66q-66 -67 -66 -160v-934
z" />
    <glyph glyph-name="D" unicode="D" horiz-adv-x="485" 
d="M0 0h288q102 0 131 82q11 32 14 85q1 20 1 48l1 909q0 29 -1 49q-2 53 -13 85q-27 83 -128 83h-293v-1341zM168 172v995h36q15 1 30 -7q30 -17 30 -62v-857q0 -45 -30 -62q-15 -8 -30 -7h-36z" />
    <glyph glyph-name="E" unicode="E" horiz-adv-x="385" 
d="M0 0h335v168h-167v418h167v168h-167v419h167v168h-335v-1341z" />
    <glyph glyph-name="F" unicode="F" horiz-adv-x="385" 
d="M0 0h168v586h115v168h-115v419h167v168h-335v-1341z" />
    <glyph glyph-name="G" unicode="G" 
d="M0 203q0 -93 66 -160q67 -66 160 -66q94 0 160 66q67 67 67 160v552h-224v-168h53v-404q0 -23 -16 -39q-17 -16 -40 -16t-39 16q-17 16 -17 39v974q0 23 17 39q16 17 39 17t40 -17q16 -16 16 -39v-324h171v304q0 93 -67 160q-66 66 -160 66q-93 0 -160 -66
q-66 -67 -66 -160v-934z" />
    <glyph glyph-name="H" unicode="H" horiz-adv-x="506" 
d="M0 0h168v587h120v-587h168v1341h-168v-587h-120v587h-168v-1341z" />
    <glyph glyph-name="I" unicode="I" horiz-adv-x="218" 
d="M0 0v1341h168v-1341h-168z" />
    <glyph glyph-name="J" unicode="J" horiz-adv-x="316" 
d="M0 -17q20 -4 40 -4q226 0 226 171v1191h-168v-839h1v-301q0 -75 -59 -75q-25 0 -40 13v-156z" />
    <glyph glyph-name="K" unicode="K" horiz-adv-x="534" 
d="M0 0h168v596l149 -596h167l-167 670l167 671h-167l-149 -596v596h-168v-1341z" />
    <glyph glyph-name="L" unicode="L" horiz-adv-x="385" 
d="M0 0h335v168h-167v1173h-168v-1341z" />
    <glyph glyph-name="M" unicode="M" horiz-adv-x="682" 
d="M0 0h168v575l81 -575h131l84 588v-588h168v1341h-170l-147 -705l-147 705h-168v-1341z" />
    <glyph glyph-name="N" unicode="N" horiz-adv-x="497" 
d="M0 0h168v575l111 -575h168v1341h-168v-619l-111 619h-168v-1341z" />
    <glyph glyph-name="O" unicode="O" 
d="M0 203q0 -93 66 -160q67 -66 160 -66q94 0 160 66q67 67 67 160v934q0 93 -67 160q-66 66 -160 66q-93 0 -160 -66q-66 -67 -66 -160v-934zM170 183v974q0 23 17 39q16 17 39 17t40 -17q16 -16 16 -39v-974q0 -23 -16 -39q-17 -16 -40 -16t-39 16q-17 16 -17 39z" />
    <glyph glyph-name="P" unicode="P" horiz-adv-x="478" 
d="M0 0h168v410h119q98 0 126 82q11 32 14 85q1 20 1 48v501q0 28 -1 48q-3 52 -14 85q-28 82 -126 82h-287v-1341zM168 582v587h37q15 1 29 -7q29 -17 29 -62v-449q0 -45 -29 -62q-14 -8 -29 -7h-37z" />
    <glyph glyph-name="Q" unicode="Q" 
d="M0 203q0 -67 36 -123q36 -54 95 -82v-66q0 -171 226 -171q20 0 40 4v156q-15 -13 -40 -13q-59 0 -59 75v6q68 23 111 81q44 60 44 133v934q0 94 -67 160q-66 66 -160 66q-93 0 -160 -66q-66 -66 -66 -160v-934zM171 183v974q0 23 16 39q16 17 39 17t40 -17q16 -16 16 -39
v-974q0 -23 -16 -39q-17 -16 -40 -16t-39 16t-16 39z" />
    <glyph glyph-name="R" unicode="R" horiz-adv-x="478" 
d="M0 0h168v412h28q14 1 29 -7q13 -7 20 -20q9 -17 9 -42v-343h165v355v36q-1 39 -5 65q-10 69 -45 100q29 41 46 95q13 45 13 80v395q0 28 -1 48q-3 52 -14 85q-28 82 -126 82h-287v-1341zM168 638v531h37q15 1 29 -7q29 -17 29 -62v-393q0 -46 -29 -62q-14 -8 -29 -7h-37z
" />
    <glyph glyph-name="S" unicode="S" horiz-adv-x="505" 
d="M0 181q8 -86 73 -145t153 -59q89 0 154 59t73 146v1v342v9q0 56 -22 112q-21 53 -59 84q-48 38 -119 38h-32q-22 0 -37 16q-13 16 -13 39v331q0 24 16 40t39 16t40 -16q16 -16 16 -40v-324h171v305q0 93 -67 159q-66 67 -160 67q-93 0 -160 -67q-66 -66 -66 -159v-329
q0 -86 58 -151q67 -75 163 -75h11q50 0 50 -56v-341q0 -23 -16 -39q-17 -16 -40 -16t-39 16t-16 39v323h-171v-325z" />
    <glyph glyph-name="T" unicode="T" horiz-adv-x="441" 
d="M0 1173h112v-1173h167v1173h112v168h-391v-168z" />
    <glyph glyph-name="U" unicode="U" 
d="M0 203q0 -93 66 -160q67 -66 160 -66q94 0 160 66q67 67 67 160v1138h-171v-1158q0 -23 -16 -39q-17 -16 -40 -16t-39 16q-17 16 -17 39v1158h-170v-1138z" />
    <glyph glyph-name="V" unicode="V" horiz-adv-x="553" 
d="M0 1341l168 -1341h167l168 1341h-168l-84 -671l-83 671h-168z" />
    <glyph glyph-name="W" unicode="W" horiz-adv-x="815" 
d="M0 1341l130 -1341h168l84 676l85 -676h168l130 1341h-168l-57 -587l-73 587h-169l-73 -587l-57 587h-168z" />
    <glyph glyph-name="X" unicode="X" horiz-adv-x="534" 
d="M0 0h168l74 316l75 -316h167l-158 671l158 670h-167l-75 -316l-74 316h-168l158 -671z" />
    <glyph glyph-name="Y" unicode="Y" horiz-adv-x="592" 
d="M0 1341l186 -913h1v-428h168v428h1l186 913h-168l-103 -506l-103 506h-168z" />
    <glyph glyph-name="Z" unicode="Z" horiz-adv-x="441" 
d="M0 0h391v168h-223l223 1005v168h-391v-168h224l-224 -1005v-168z" />
    <glyph glyph-name="bracketleft" unicode="[" horiz-adv-x="278" 
d="M0 0h228v168h-60v1005h60v168h-228v-1341z" />
    <glyph glyph-name="backslash" unicode="\" horiz-adv-x="378" 
d="M0 1441h158l170 -1541h-158z" />
    <glyph glyph-name="bracketright" unicode="]" horiz-adv-x="278" 
d="M0 0h228v1341h-228v-168h60v-1005h-60v-168z" />
    <glyph glyph-name="asciicircum" unicode="^" horiz-adv-x="356" 
d="M0 1036l116 306h74l116 -306h-74l-79 208l-79 -208h-74z" />
    <glyph glyph-name="underscore" unicode="_" horiz-adv-x="446" 
d="M0 -24v74h396v-74h-396z" />
    <glyph glyph-name="grave" unicode="`" horiz-adv-x="272" 
d="M0 1704l88 -268h134l-88 268h-134z" />
    <glyph glyph-name="a" unicode="a" 
d="M0 203q0 -66 35 -121q35 -54 92 -82q47 -23 99 -23q51 0 98 23h129v802q0 93 -67 160q-66 66 -160 66q-93 0 -160 -66q-66 -67 -66 -160v-170h170v190q0 23 17 39q16 16 39 16t40 -16q16 -16 16 -39v-161l-109 -62q-33 -20 -44 -28q-29 -20 -52 -42q-62 -60 -74 -133
q-3 -18 -3 -34v-159zM170 183v141q-2 19 9 44q20 51 82 85l11 6l10 6v-282q0 -6 -2 -13q-3 -12 -11 -22l-2 -2l-4 -4l-4 -3l-4 -3l-4 -3l-5 -1l-6 -2l-3 -1l-11 -1q-23 0 -39 16q-17 16 -17 39z" />
    <glyph glyph-name="b" unicode="b" 
d="M0 203q0 -93 66 -160q67 -66 160 -66q94 0 160 66q67 67 67 160v599q0 93 -67 160q-66 66 -160 66q-29 0 -58 -8v321h-168v-1138zM170 183v639q0 23 17 39q16 16 39 16t40 -16q16 -16 16 -39v-639q0 -23 -16 -39q-17 -16 -40 -16t-39 16q-17 16 -17 39z" />
    <glyph glyph-name="c" unicode="c" 
d="M0 203q0 -93 66 -160q67 -66 160 -66q94 0 160 66q67 67 67 160v183h-171v-203q0 -23 -16 -39q-17 -16 -40 -16t-39 16q-17 16 -17 39v639q0 23 17 39q16 16 39 16t40 -16q16 -16 16 -39v-188h171v168q0 93 -67 160q-66 66 -160 66q-93 0 -160 -66q-66 -67 -66 -160v-599
z" />
    <glyph glyph-name="d" unicode="d" 
d="M0 203q0 -93 66 -160q67 -66 160 -66q94 0 160 66q67 67 67 160v1138h-168v-321q-30 8 -59 8q-93 0 -160 -66q-66 -67 -66 -160v-599zM171 183v639q0 23 16 39t39 16t40 -16q16 -16 16 -39v-639q0 -23 -16 -39q-17 -16 -40 -16t-39 16t-16 39z" />
    <glyph glyph-name="e" unicode="e" 
d="M0 203q0 -93 66 -160q67 -66 160 -66q94 0 160 66q67 67 67 160v183h-171v-203q0 -23 -16 -39q-17 -16 -40 -16t-39 16q-17 16 -17 39v276h283v343q0 93 -67 160q-66 66 -160 66q-93 0 -160 -66q-66 -67 -66 -160v-599zM170 627v195q0 23 17 39q16 16 39 16t40 -16
q16 -16 16 -39v-195h-112z" />
    <glyph glyph-name="f" unicode="f" horiz-adv-x="360" 
d="M0 838h43v-838h167v838h43v167h-43v73l3 80q0 23 17 39q16 17 39 17q25 0 41 -19v165q-21 4 -41 4q-94 0 -160 -66t-66 -160v-133h-43v-167z" />
    <glyph glyph-name="g" unicode="g" horiz-adv-x="537" 
d="M0 144q0 -43 17 -79q13 -26 34 -47l9 -7q-37 -57 -37 -124v-114q0 -93 67 -160q66 -66 159 -66q94 0 160 66q67 67 67 160v114q0 93 -66 159q-65 67 -158 68q-75 1 -76 1q-31 0 -31 23q0 22 29 24h4q10 -1 18 -5q27 -7 53 -7q94 0 160 66q67 67 67 160v425q0 48 -20 93
h31v109h-135q-49 24 -103 24q-93 0 -159 -66q-67 -66 -67 -160v-425q0 -63 33 -117q-34 -31 -48 -73q-5 -14 -7 -28q-1 -4 -1 -9v-3v-2zM194 -93q0 23 16 40q16 16 39 16q24 0 40 -16q16 -17 16 -40v-154q0 -23 -16 -39t-40 -16q-23 0 -39 16t-16 39v154zM194 356v465
q0 23 16 39q16 17 39 17q24 0 40 -17q16 -16 16 -39v-465q0 -23 -16 -39t-40 -16q-23 0 -39 16t-16 39z" />
    <glyph glyph-name="h" unicode="h" 
d="M0 0h170v821q0 23 17 40q16 16 39 16t40 -16q16 -17 16 -40v-821h171v801q0 227 -159 227q-52 0 -95 -25q-13 -8 -24 -17q-4 -3 -6 -5t-1 -3v363h-168v-1341z" />
    <glyph glyph-name="i" unicode="i" horiz-adv-x="218" 
d="M0 0v1006h168v-1006h-168zM0 1062v177h168v-177h-168z" />
    <glyph glyph-name="j" unicode="j" horiz-adv-x="318" 
d="M0 -188v-165q21 -4 41 -4q94 0 160 66q67 67 67 160v1138h-168v-1077l-3 -81q0 -23 -16 -39q-17 -16 -40 -16q-24 0 -41 18zM100 1062v177h168v-177h-168z" />
    <glyph glyph-name="k" unicode="k" horiz-adv-x="513" 
d="M0 0h168v445l127 -445h168l-144 503l144 503h-168l-127 -446v781h-168v-1341z" />
    <glyph glyph-name="l" unicode="l" horiz-adv-x="218" 
d="M0 0v1341h168v-1341h-168z" />
    <glyph glyph-name="m" unicode="m" horiz-adv-x="786" 
d="M0 0h170v821q0 23 17 40q16 16 39 16t40 -16q16 -17 16 -40v-821h172v821q0 23 16 40q17 16 40 16t39 -16q17 -17 17 -40v-821h170v801q0 227 -159 227q-76 0 -120 -43q-22 -21 -28 -42q-37 85 -135 85q-52 0 -95 -25q-13 -8 -24 -17q-4 -3 -6 -5t-1 -3v28h-168v-1006z
" />
    <glyph glyph-name="n" unicode="n" 
d="M0 0h170v821q0 23 17 40q16 16 39 16t40 -16q16 -17 16 -40v-821h171v801q0 227 -160 227q-51 0 -94 -25q-13 -8 -24 -17q-4 -3 -6 -5t-1 -3v28h-168v-1006z" />
    <glyph glyph-name="o" unicode="o" 
d="M0 203q0 -93 66 -160q67 -66 160 -66q94 0 160 66q67 67 67 160v599q0 93 -67 160q-66 66 -160 66q-93 0 -160 -66q-66 -67 -66 -160v-599zM170 183v639q0 23 17 39q16 16 39 16t40 -16q16 -16 16 -39v-639q0 -23 -16 -39q-17 -16 -40 -16t-39 16q-17 16 -17 39z" />
    <glyph glyph-name="p" unicode="p" 
d="M0 -337h168v321q29 -8 58 -8q94 0 160 67q67 66 67 160v598q0 94 -67 160q-66 66 -160 66q-93 0 -160 -66q-66 -66 -66 -160v-1138zM170 183v638q0 23 17 39q16 17 39 17t40 -17q16 -16 16 -39v-638q0 -23 -16 -40q-17 -16 -40 -16t-39 16q-17 17 -17 40z" />
    <glyph glyph-name="q" unicode="q" 
d="M0 203q0 -94 66 -160q67 -67 160 -67q29 0 59 8v-321h168v1138q0 94 -67 160q-66 66 -160 66q-93 0 -160 -66q-66 -66 -66 -160v-598zM171 183v638q0 23 16 39q16 17 39 17t40 -17q16 -16 16 -39v-638q0 -23 -16 -40q-17 -16 -40 -16t-39 16q-16 17 -16 40z" />
    <glyph glyph-name="r" unicode="r" horiz-adv-x="331" 
d="M0 0h170v810q0 22 20 39q19 16 42 16q41 0 49 -14v165q-46 -3 -85 -26q-12 -8 -22 -16l-5 -5t-1 -2v39h-168v-1006z" />
    <glyph glyph-name="s" unicode="s" 
d="M0 181q8 -86 73 -145t153 -59q89 0 154 59t73 146v1v177v8q-1 13 -2 27q-5 46 -20 84q-48 121 -178 121h-32q-22 0 -37 17q-13 16 -13 38v164q0 23 16 40q16 16 39 16t40 -16q16 -17 16 -40v-156h171v136q0 94 -67 160q-66 67 -160 67q-93 0 -160 -67q-66 -66 -66 -160
v-161q0 -86 58 -151q67 -75 163 -75h11q50 0 50 -55v-174q0 -23 -16 -39q-17 -16 -40 -16t-39 16t-16 39v156h-171v-158z" />
    <glyph glyph-name="t" unicode="t" horiz-adv-x="329" 
d="M0 838h55v-838h168v838h56v167h-56v336h-168v-336h-55v-167z" />
    <glyph glyph-name="u" unicode="u" 
d="M0 203q0 -226 159 -226q51 0 94 24q14 8 24 17q4 3 6 6l2 2v-27h168v1006h-171v-822q0 -23 -16 -39q-17 -16 -40 -16t-39 16t-16 39v822h-171v-802z" />
    <glyph glyph-name="v" unicode="v" horiz-adv-x="553" 
d="M0 1006l168 -1006h167l168 1006h-168l-84 -503l-83 503h-168z" />
    <glyph glyph-name="w" unicode="w" horiz-adv-x="800" 
d="M0 1006l149 -1006h160l66 482l66 -482h160l149 1006h-169l-55 -433l-85 433h-132l-85 -433l-55 433h-169z" />
    <glyph glyph-name="x" unicode="x" horiz-adv-x="516" 
d="M0 0h168l65 220l65 -220h168l-149 503l149 503h-168l-65 -220l-65 220h-168l149 -503z" />
    <glyph glyph-name="y" unicode="y" horiz-adv-x="553" 
d="M0 1006l168 -1006h1l-67 -401h168l233 1407h-168l-83 -504l-84 504h-168z" />
    <glyph glyph-name="z" unicode="z" horiz-adv-x="356" 
d="M0 0h306v168h-139l139 683v155h-306v-168h136l-136 -665v-173z" />
    <glyph glyph-name="braceleft" unicode="{" horiz-adv-x="377" 
d="M0 584h23q32 0 45 -14q10 -9 14 -28q2 -7 2 -14q1 -5 1 -9l-1 -3v-88h1v-226q0 -93 66 -160q66 -66 160 -66l16 1v152q-9 -2 -16 -2q-23 0 -40 16q-16 16 -16 39v330v10v14q-2 19 -6 38q-11 54 -41 94q30 39 41 93q4 19 6 38v14v10v333q0 23 16 39q17 17 40 17q8 0 16 -3
v152l-16 1q-94 0 -160 -66q-66 -67 -66 -160v-137h-1v-179l1 -3q0 -4 -1 -10q0 -7 -2 -14q-4 -19 -14 -28q-13 -14 -45 -14h-1h-22v-167z" />
    <glyph glyph-name="bar" unicode="|" horiz-adv-x="218" 
d="M0 -100v1541h168v-1541h-168z" />
    <glyph glyph-name="braceright" unicode="}" horiz-adv-x="377" 
d="M0 -23l17 -1q93 0 159 66q67 67 67 160v226v88v3v9l2 14q5 19 14 28q13 14 46 14h22v167h-22q-33 0 -46 14q-9 9 -14 28l-2 14v10v3v179v137q0 93 -67 160q-66 66 -159 66l-17 -1v-152q9 3 17 3q23 0 39 -17q16 -16 16 -39v-333v-10q0 -7 1 -14q1 -19 5 -38
q11 -54 42 -93q-31 -40 -42 -94q-4 -19 -5 -38q-1 -7 -1 -14v-10v-330q0 -23 -16 -39t-39 -16q-8 0 -17 2v-152z" />
    <glyph glyph-name="asciitilde" unicode="~" horiz-adv-x="541" 
d="M0 104l1 -2l2 -4q4 -5 7 -11q11 -16 24 -30q41 -43 91 -54q32 -6 64 1q43 9 85 41q20 16 38 20q6 2 12 1h4h3q21 -4 43 -24q7 -7 14 -15q6 -7 8 -11l95 59l-1 2l-3 4q-4 6 -8 11q-13 17 -28 31q-47 43 -101 53q-31 5 -64 -2q-42 -10 -82 -41q-32 -25 -55 -20
q-16 3 -32 20q-6 6 -11 13q-5 6 -7 10l-1 2l-1 2z" />
    <glyph glyph-name="uni00A0" unicode="&#xa0;" horiz-adv-x="131" 
 />
    <glyph glyph-name="exclamdown" unicode="&#xa1;" horiz-adv-x="218" 
d="M0 0h168v1022h-168v-1022zM0 1173v168h168v-168h-168z" />
    <glyph glyph-name="cent" unicode="&#xa2;" horiz-adv-x="344" 
d="M0 767q0 -61 43 -104q22 -22 49 -33v-45h110l-1 45q28 10 50 33q43 43 43 104v119h-111v-132q0 -15 -10 -26q-11 -10 -26 -10t-25 10q-11 11 -11 26v415q0 15 11 25q10 11 25 11t26 -11q10 -10 10 -25v-122h111v109q0 61 -43 104q-22 22 -50 33l1 47h-110v-47
q-27 -11 -49 -33q-43 -43 -43 -104v-389z" />
    <glyph glyph-name="sterling" unicode="&#xa3;" horiz-adv-x="330" 
d="M0 701h280v109h-280v-109zM0 1001q0 -42 14 -80q6 -15 14 -32l8 -14l7 -14q34 -59 34 -104q0 -61 -20 -113q-13 -35 -35 -54l-1 -1l-1 -1v-111h246v113h-110q33 76 33 167q0 49 -16 94q-6 17 -15 35l-8 16l-9 14q-28 51 -28 85v223q0 11 8 19t19 8q12 0 20 -8t8 -19v-200
h112v200q0 58 -41 99t-99 41t-99 -41t-41 -99v-223z" />
    <glyph glyph-name="currency" unicode="&#xa4;" horiz-adv-x="369" 
d="M0 694l49 -40l32 35q34 -22 78 -22q45 0 79 22l32 -35l49 40l-35 40q23 36 23 79v390q0 44 -24 79l36 42l-49 40l-32 -37q-35 23 -79 23q-43 0 -78 -22l-32 36l-49 -40l36 -41q-24 -36 -24 -80v-390q0 -44 23 -79zM123 800v416q0 15 11 25q10 11 25 11t26 -11
q11 -10 11 -25v-416q0 -14 -11 -25q-11 -10 -26 -10t-25 10q-11 11 -11 25z" />
    <glyph glyph-name="yen" unicode="&#xa5;" horiz-adv-x="402" 
d="M0 1341l121 -593h1v-279h109v279l121 593h-109l-67 -329l-67 329h-109zM36 649h280v84h-280v-84zM36 760h280v85h-280v-85z" />
    <glyph glyph-name="brokenbar" unicode="&#xa6;" horiz-adv-x="218" 
d="M0 -100v641h168v-641h-168zM0 800v641h168v-641h-168z" />
    <glyph glyph-name="section" unicode="&#xa7;" horiz-adv-x="263" 
d="M0 525q4 -40 34 -67q31 -28 72 -28t72 28q30 27 34 68v160q1 29 -10 57q-5 13 -12 23q19 24 22 56v151q1 28 -10 56q-10 25 -28 40q-22 17 -56 17h-15q-10 0 -17 8q-6 7 -6 18v155q0 11 8 19q7 7 18 7t18 -7q8 -8 8 -19v-152h80v143q0 44 -31 75t-75 31t-75 -31t-31 -75
v-154q0 -40 27 -70v-1q-27 -29 -27 -69v-146q0 -40 27 -71q31 -35 76 -35h6q23 0 23 -26v-160q0 -10 -8 -18q-7 -7 -18 -7t-18 7q-8 8 -8 18v151h-80v-152zM80 826v145q0 12 8 19q7 8 18 8t18 -8q8 -7 8 -19v-149q0 -11 -8 -18l-4 -4h-17q-10 0 -17 8q-6 7 -6 18z" />
    <glyph glyph-name="dieresis" unicode="&#xa8;" horiz-adv-x="534" 
d="M0 1362v168h168v-168h-168zM316 1362v168h168v-168h-168z" />
    <glyph glyph-name="copyright" unicode="&#xa9;" horiz-adv-x="816" 
d="M0 1075q0 109 57 200.5t146 137t170 45.5q174 0 283.5 -115t109.5 -268q0 -158 -112.5 -270.5t-270.5 -112.5q-159 0 -271 112t-112 271zM76 1075q0 -127 90 -217.5t217 -90.5t217.5 90.5t90.5 217.5q0 132 -93.5 219.5t-206.5 87.5q-138 0 -226.5 -91.5t-88.5 -215.5z
M195 1073q0 99 53 156.5t137 57.5q128 0 172 -122h-90q-27 51 -80 51q-50 0 -77 -38t-27 -100q0 -69 26 -107.5t73 -38.5q55 0 84 59h91q-41 -130 -170 -130q-87 0 -139.5 57.5t-52.5 154.5z" />
    <glyph glyph-name="ordfeminine" unicode="&#xaa;" horiz-adv-x="349" 
d="M0 846q0 -39 23 -72t61 -50q31 -14 65 -14t65 14h85v481q0 56 -44 96t-106 40q-61 0 -105 -40t-44 -96v-102h113v114q0 14 10 24q11 10 26 10q16 0 26 -10q11 -10 11 -24v-96l-72 -37q-21 -12 -29 -17q-19 -12 -34 -25q-41 -36 -49 -80q-2 -11 -2 -20v-96zM113 834v84
q-2 12 5 27q14 31 54 51l7 4l7 3v-169q0 -3 -1 -8q-2 -7 -7 -13l-2 -1l-3 -3l-2 -1l-3 -2l-3 -2l-2 -1l-4 -1l-3 -1h-7q-15 0 -26 10q-10 9 -10 23z" />
    <glyph glyph-name="guillemotleft" unicode="&#xab;" horiz-adv-x="540" 
d="M0 704l42 53l228 281l52 -41l-237 -293l237 -292l-52 -42l-228 282zM168 704l42 53l228 281l52 -41l-237 -293l237 -292l-52 -42l-228 282z" />
    <glyph glyph-name="logicalnot" unicode="&#xac;" horiz-adv-x="473" 
d="M0 713v74h423v-156h-73v82h-350z" />
    <glyph glyph-name="uni00AD" unicode="&#xad;" horiz-adv-x="339" 
d="M0 666v74h289v-74h-289z" />
    <glyph glyph-name="registered" unicode="&#xae;" horiz-adv-x="803" 
d="M18 1074q0 111 59.5 204.5t148.5 136t165 42.5q172 0 282.5 -114t110.5 -269q0 -158 -112.5 -270.5t-270.5 -112.5q-159 0 -271 112t-112 271zM94 1074q0 -127 90.5 -217.5t217.5 -90.5t217.5 90.5t90.5 217.5q0 87 -45.5 161t-117 110.5t-137.5 36.5q-141 0 -228.5 -93
t-87.5 -215zM243 869v407h192q72 0 104.5 -33.5t32.5 -81.5q0 -47 -27.5 -75.5t-63.5 -38.5q46 -33 100 -178h-101q-55 145 -96 167h-38h-21v-167h-82zM325 1100h67q50 0 71.5 13.5t21.5 43.5q0 27 -21 40.5t-64 13.5h-75v-111z" />
    <glyph glyph-name="macron" unicode="&#xaf;" horiz-adv-x="610" 
d="M0 1197v167h560v-167h-560z" />
    <glyph glyph-name="degree" unicode="&#xb0;" horiz-adv-x="307" 
d="M0 1107q0 -53 38 -90q37 -38 91 -38q53 0 90 38q38 37 38 90v128q0 54 -38 91q-37 38 -90 38q-54 0 -91 -38q-38 -37 -38 -91v-128zM97 1096v151q0 13 9 22t23 9q13 0 22 -9t9 -22v-151q0 -13 -9 -22q-9 -10 -22 -10q-14 0 -23 10q-9 9 -9 22z" />
    <glyph glyph-name="plusminus" unicode="&#xb1;" horiz-adv-x="448" 
d="M0 386v73h398v-73h-398zM0 666v74h161v161h73v-161h162v-74h-162v-161h-73v161h-161z" />
    <glyph glyph-name="uni00B2" unicode="&#xb2;" horiz-adv-x="277" 
d="M0 681h226v84h-142v63q0 29 24 65q17 26 46 54l8 8q52 55 62 131q3 22 3 45v48v48v24q0 47 -33 80t-80 33t-80 -33t-33 -80v-152h85v162q0 11 8 19q9 9 20 9q12 0 20 -9q8 -8 8 -19v-36v-35q1 -43 0 -72q-2 -65 -51 -115q-48 -49 -71 -98q-20 -41 -20 -130v-3v-91z" />
    <glyph glyph-name="uni00B3" unicode="&#xb3;" horiz-adv-x="273" 
d="M0 803q0 -55 33 -93q32 -39 79 -39q46 0 79 39q32 38 32 93v127q0 51 -29 89q29 37 29 88v126q0 55 -32 93q-33 38 -79 38q-47 0 -79 -38q-33 -38 -33 -93v-134h82v146q0 14 9 24t21 10t20 -10q9 -10 9 -24v-150q0 -15 -9 -24q-11 -11 -35 -11v-84q44 0 44 -34v-151
q0 -14 -9 -24q-8 -10 -20 -10t-21 10t-9 24v127h-82v-115z" />
    <glyph glyph-name="acute" unicode="&#xb4;" horiz-adv-x="272" 
d="M0 1435h134l88 268h-134z" />
    <glyph glyph-name="mu" unicode="&#xb5;" 
d="M0 -249h168v226q46 2 85 24q14 8 24 17q4 3 6 6l2 2v-27h168v1006h-171v-822q0 -23 -16 -39q-17 -16 -40 -16t-39 16t-16 39v822h-171v-1254z" />
    <glyph glyph-name="paragraph" unicode="&#xb6;" horiz-adv-x="359" 
d="M0 1224q0 -49 34 -83t83 -34h5v-393h79v548h29v-548h79v627h-192q-49 0 -83 -34t-34 -83z" />
    <glyph glyph-name="periodcentered" unicode="&#xb7;" horiz-adv-x="218" 
d="M0 616v168h168v-168h-168z" />
    <glyph glyph-name="cedilla" unicode="&#xb8;" horiz-adv-x="291" 
d="M0 -263q111 -15 111 52v6q-1 69 -109 53v231h127v-136q112 -18 112 -118v-31q0 -159 -241 -139v82z" />
    <glyph glyph-name="uni00B9" unicode="&#xb9;" horiz-adv-x="164" 
d="M0 1255h30v-587h84v671h-114v-84z" />
    <glyph glyph-name="ordmasculine" unicode="&#xba;" horiz-adv-x="349" 
d="M0 816q0 -56 44 -96t105 -40q62 0 106 40t44 96v389q0 56 -44 96t-106 40q-61 0 -105 -40t-44 -96v-389zM113 804v413q0 14 10 24q11 10 26 10q16 0 26 -10q11 -10 11 -24v-413q0 -14 -11 -23q-10 -10 -26 -10q-15 0 -26 10q-10 9 -10 23z" />
    <glyph glyph-name="guillemotright" unicode="&#xbb;" horiz-adv-x="540" 
d="M0 412l237 292l-237 293l52 41l228 -281l42 -53l-42 -52l-228 -282zM168 412l237 292l-237 293l52 41l228 -281l42 -53l-42 -52l-228 -282z" />
    <glyph glyph-name="onequarter" unicode="&#xbc;" horiz-adv-x="642" 
d="M0 1279v84h114v-671h-84v587h-30zM54 183l303 1181h76l-302 -1181h-77zM343 476v378h84v-295h58v295h84v-295h23v-83h-23v-293h-84v293h-142z" />
    <glyph glyph-name="onehalf" unicode="&#xbd;" horiz-adv-x="624" 
d="M0 1279v84h114v-671h-84v587h-30zM54 183l303 1181h76l-302 -1181h-77zM347 183v94q0 89 19 129q23 49 72 99t51 115v143q0 10 -9 19q-8 9 -19 9q-12 0 -20 -9q-8 -8 -8 -19v-163h-85v153q0 47 33 80t80 33q46 0 80 -33q33 -33 33 -80v-120q0 -25 -3 -45
q-10 -76 -63 -131l-8 -8q-29 -30 -46 -54q-23 -36 -23 -65v-63h142v-84h-226z" />
    <glyph glyph-name="threequarters" unicode="&#xbe;" horiz-adv-x="694" 
d="M0 803v115h82v-127q0 -14 9 -24q8 -10 20 -10q13 0 21 10q9 10 9 24v151q0 34 -44 34v84q24 0 35 11q9 9 9 24v150q0 14 -9 24q-8 10 -21 10q-12 0 -20 -10q-9 -10 -9 -24v-146h-82v134q0 55 32 93q33 38 79 38q47 0 80 -38q32 -38 32 -93v-126q0 -51 -29 -88
q29 -38 29 -89v-127q0 -55 -32 -93q-33 -39 -80 -39q-46 0 -79 39q-32 38 -32 93zM106 183l303 1181h77l-303 -1181h-77zM395 476v378h84v-295h58v295h84v-295h23v-83h-23v-293h-84v293h-142z" />
    <glyph glyph-name="questiondown" unicode="&#xbf;" 
d="M0 203q0 -93 66 -160q67 -66 160 -66q94 0 160 66q67 67 67 160l-1 317q0 44 -6 77q-10 43 -31 70l-110 139q-18 18 -18 45v170h-168v-144q0 -44 14 -86q10 -34 29 -65q22 -36 43 -56l48 -45q18 -19 23 -38q6 -20 6 -66v4v-342q0 -23 -16 -39q-17 -16 -40 -16t-39 16
t-16 39v325h-171v-305zM119 1172v168h168v-168h-168z" />
    <glyph glyph-name="Agrave" unicode="&#xc0;" horiz-adv-x="553" 
d="M0 0h168l19 152h129l19 -152h168l-168 1341h-167zM103 1702l88 -268h134l-88 268h-134zM208 319l43 352l44 -352h-87z" />
    <glyph glyph-name="Aacute" unicode="&#xc1;" horiz-adv-x="553" 
d="M0 0h168l19 152h129l19 -152h168l-168 1341h-167zM177 1432h135l88 268h-135zM208 319l43 352l44 -352h-87z" />
    <glyph glyph-name="Acircumflex" unicode="&#xc2;" horiz-adv-x="553" 
d="M0 0h168l19 152h129l19 -152h168l-168 1341h-167zM75 1433h126l50 112l50 -112h127l-120 268h-113zM208 319l43 352l44 -352h-87z" />
    <glyph glyph-name="Atilde" unicode="&#xc3;" horiz-adv-x="553" 
d="M0 0h168l19 152h129l19 -152h168l-168 1341h-167zM25 1529l1 -2l2 -3l6 -10q10 -15 23 -28q37 -40 83 -50q29 -6 59 1q40 8 78 38q19 15 35 18q6 2 12 1h3h3q19 -4 39 -22q8 -7 14 -14q5 -6 7 -10l88 54l-1 2l-3 4q-3 5 -7 10q-12 15 -26 29q-43 39 -93 48q-29 5 -59 -1
q-39 -9 -76 -38q-29 -23 -51 -19q-14 3 -29 18q-6 6 -11 13q-4 5 -6 9l-1 2l-1 2zM208 319l43 352l44 -352h-87z" />
    <glyph glyph-name="Adieresis" unicode="&#xc4;" horiz-adv-x="553" 
d="M0 0h168l19 152h130l19 -152h167l-167 1341h-168zM0 1434v168h168v-168h-168zM208 319l44 352l44 -352h-88zM316 1434v168h168v-168h-168z" />
    <glyph glyph-name="Aring" unicode="&#xc5;" horiz-adv-x="553" 
d="M0 0h168l19 152h129l19 -152h168l-168 1341h-5q8 6 15 13q37 38 39 89q-2 52 -39 89q-39 39 -94 39t-94 -39q-37 -37 -39 -89q2 -51 39 -89q7 -7 15 -13h-4zM208 319l43 352l44 -352h-87zM220 1437v13q0 12 9 21q9 8 22 8q12 0 22 -8q9 -9 9 -21v-13q0 -13 -9 -22
q-10 -8 -22 -8q-13 0 -22 8q-9 9 -9 22z" />
    <glyph glyph-name="AE" unicode="&#xc6;" horiz-adv-x="725" 
d="M0 0h168l37 152h130v-152h340v168h-168v418h168v168h-168v419h168v168h-343zM247 319l86 352l1 -352h-87z" />
    <glyph glyph-name="Ccedilla" unicode="&#xc7;" 
d="M0 203q0 -93 66 -160q43 -42 96 -57v-138q109 16 109 -53v-6q0 -67 -110 -52v-82q241 -20 241 139v31q0 100 -112 118v43q54 15 96 57q67 67 67 160v306h-171v-326q0 -23 -16 -39q-17 -16 -40 -16t-39 16q-17 16 -17 39v974q0 23 17 39q16 17 39 17t40 -17q16 -16 16 -39
v-324h171v304q0 93 -67 160q-66 66 -160 66q-93 0 -160 -66q-66 -67 -66 -160v-934z" />
    <glyph glyph-name="Egrave" unicode="&#xc8;" horiz-adv-x="385" 
d="M0 0h335v168h-167v418h167v168h-167v419h167v168h-335v-1341zM20 1702l88 -268h134l-88 268h-134z" />
    <glyph glyph-name="Eacute" unicode="&#xc9;" horiz-adv-x="385" 
d="M0 0h335v168h-167v418h167v168h-167v419h167v168h-335v-1341zM94 1433h134l88 268h-134z" />
    <glyph glyph-name="Ecircumflex" unicode="&#xca;" horiz-adv-x="403" 
d="M0 1434h126l50 112l50 -112h127l-120 268h-113zM9 0h335v168h-168v418h168v168h-168v419h168v168h-335v-1341z" />
    <glyph glyph-name="Edieresis" unicode="&#xcb;" horiz-adv-x="534" 
d="M0 1435v168h168v-168h-168zM74 0h335v168h-167v418h167v168h-167v419h167v168h-335v-1341zM316 1435v168h168v-168h-168z" />
    <glyph glyph-name="Igrave" unicode="&#xcc;" horiz-adv-x="282" 
d="M0 1701l88 -268h134l-88 268h-134zM64 0v1341h168v-1341h-168z" />
    <glyph glyph-name="Iacute" unicode="&#xcd;" horiz-adv-x="282" 
d="M0 0v1341h168v-1341h-168zM10 1432h134l88 268h-134z" />
    <glyph glyph-name="Icircumflex" unicode="&#xce;" horiz-adv-x="403" 
d="M0 1433h126l50 112l50 -112h127l-120 268h-113zM93 0v1341h167v-1341h-167z" />
    <glyph glyph-name="Idieresis" unicode="&#xcf;" horiz-adv-x="534" 
d="M0 1432v168h168v-168h-168zM158 0v1341h168v-1341h-168zM316 1432v168h168v-168h-168z" />
    <glyph glyph-name="Eth" unicode="&#xd0;" horiz-adv-x="525" 
d="M0 586h40v-586h288q102 0 131 82q11 32 14 85q1 20 1 48l1 909q0 29 -1 49q-2 53 -13 85q-27 83 -128 83h-293v-587h-40v-168zM208 172v414h42v168h-42v413h36q15 1 30 -7q30 -17 30 -62v-857q0 -45 -30 -62q-15 -8 -30 -7h-36z" />
    <glyph glyph-name="Ntilde" unicode="&#xd1;" 
d="M0 1530l1 -2l2 -4l6 -10q10 -15 23 -28q37 -39 83 -49q29 -6 59 0q40 9 78 39q19 14 35 18q6 1 12 1h4l2 -1q19 -3 40 -22q7 -6 13 -14q5 -6 7 -10l88 55l-1 2l-3 4q-3 5 -7 10q-12 15 -26 28q-43 40 -93 49q-29 5 -59 -2q-39 -9 -76 -37q-29 -24 -51 -20q-14 3 -29 19
q-6 6 -11 12q-4 5 -6 10l-1 1q0 1 -1 2zM3 0h168v575l112 -575h167v1341h-167v-619l-112 619h-168v-1341z" />
    <glyph glyph-name="Ograve" unicode="&#xd2;" 
d="M0 203q0 -93 66 -160q67 -66 160 -66q94 0 160 66q67 67 67 160v934q0 93 -67 160q-66 66 -160 66q-93 0 -160 -66q-66 -67 -66 -160v-934zM78 1702l88 -268h134l-88 268h-134zM170 183v974q0 23 17 39q16 17 39 17t40 -17q16 -16 16 -39v-974q0 -23 -16 -39
q-17 -16 -40 -16t-39 16q-17 16 -17 39z" />
    <glyph glyph-name="Oacute" unicode="&#xd3;" 
d="M0 203q0 -93 66 -160q67 -66 160 -66q94 0 160 66q67 67 67 160v934q0 93 -67 160q-66 66 -160 66q-93 0 -160 -66q-66 -67 -66 -160v-934zM152 1434h134l88 268h-134zM170 183v974q0 23 17 39q16 17 39 17t40 -17q16 -16 16 -39v-974q0 -23 -16 -39q-17 -16 -40 -16
t-39 16q-17 16 -17 39z" />
    <glyph glyph-name="Ocircumflex" unicode="&#xd4;" 
d="M0 203q0 -93 66 -160q67 -66 160 -66q94 0 160 66q67 67 67 160v934q0 93 -67 160q-66 66 -160 66q-93 0 -160 -66q-66 -67 -66 -160v-934zM50 1435h126l50 111l50 -111h127l-120 268h-113zM170 183v974q0 23 17 39q16 17 39 17t40 -17q16 -16 16 -39v-974q0 -23 -16 -39
q-17 -16 -40 -16t-39 16q-17 16 -17 39z" />
    <glyph glyph-name="Otilde" unicode="&#xd5;" 
d="M0 203q0 -93 66 -160q67 -66 160 -66q94 0 160 66q67 67 67 160v934q0 93 -67 160q-66 66 -160 66q-93 0 -160 -66q-66 -67 -66 -160v-934zM0 1529l1 -2l2 -3l6 -10q10 -15 23 -28q37 -40 83 -49q29 -7 59 0q40 8 78 38q19 15 35 19q6 1 12 1l4 -1h2q19 -3 40 -22
q7 -6 13 -14q5 -6 7 -10l88 54l-1 3l-3 3q-3 5 -7 10q-12 16 -26 29q-43 40 -93 48q-29 6 -59 -1q-39 -9 -76 -38q-29 -23 -51 -19q-14 3 -29 19q-6 5 -11 12q-4 5 -6 9l-1 2l-1 2zM171 183v974q0 23 16 39q16 17 39 17t40 -17q16 -16 16 -39v-974q0 -23 -16 -39
q-17 -16 -40 -16t-39 16t-16 39z" />
    <glyph glyph-name="Odieresis" unicode="&#xd6;" horiz-adv-x="534" 
d="M0 1433v168h168v-168h-168zM16 203q0 -93 66 -160q67 -66 160 -66q94 0 160 66q66 67 66 160v934q0 93 -66 160q-66 66 -160 66q-93 0 -160 -66q-66 -67 -66 -160v-934zM186 183v974q0 23 17 39q16 17 39 17t40 -17q16 -16 16 -39v-974q0 -23 -16 -39q-17 -16 -40 -16
t-39 16q-17 16 -17 39zM316 1433v168h168v-168h-168z" />
    <glyph glyph-name="multiply" unicode="&#xd7;" horiz-adv-x="382" 
d="M0 589l114 114l-114 114l52 51l113 -113l115 114l52 -52l-114 -115l114 -114l-52 -51l-114 114l-114 -114z" />
    <glyph glyph-name="Oslash" unicode="&#xd8;" horiz-adv-x="578" 
d="M0 343l38 33v-173q0 -93 66 -160q66 -66 160 -66t160 66q66 67 66 160v567l38 33v194l-38 -33v173q0 93 -66 160q-66 66 -160 66t-160 -66q-66 -67 -66 -160v-567l-38 -33v-194zM208 183v341l112 98v-439q0 -23 -17 -39q-16 -16 -39 -16t-39 16q-17 16 -17 39zM208 718
v439q0 23 17 39q16 17 39 17t39 -17q17 -16 17 -39v-341z" />
    <glyph glyph-name="Ugrave" unicode="&#xd9;" 
d="M0 203q0 -93 66 -160q67 -66 160 -66q94 0 160 66q67 67 67 160v1138h-171v-1158q0 -23 -16 -39q-17 -16 -40 -16t-39 16q-17 16 -17 39v1158h-170v-1138zM100 1702l88 -268h134l-88 268h-134z" />
    <glyph glyph-name="Uacute" unicode="&#xda;" 
d="M0 203q0 -93 66 -160q67 -66 160 -66q94 0 160 66q67 67 67 160v1138h-171v-1158q0 -23 -16 -39q-17 -16 -40 -16t-39 16q-17 16 -17 39v1158h-170v-1138zM153 1433h134l88 268h-134z" />
    <glyph glyph-name="Ucircumflex" unicode="&#xdb;" 
d="M0 203q0 -93 66 -160q67 -66 160 -66q94 0 160 66q67 67 67 160v1138h-171v-1158q0 -23 -16 -39q-17 -16 -40 -16t-39 16q-17 16 -17 39v1158h-170v-1138zM50 1433h126l50 112l50 -112h126l-120 268h-112z" />
    <glyph glyph-name="Udieresis" unicode="&#xdc;" 
d="M0 203q0 -93 66 -160q67 -66 160 -66q94 0 160 66q67 67 67 160v1138h-171v-1158q0 -23 -16 -39q-17 -16 -40 -16t-39 16q-17 16 -17 39v1158h-170v-1138zM0 1435v168h168v-168h-168zM285 1435v168h168v-168h-168z" />
    <glyph glyph-name="Yacute" unicode="&#xdd;" horiz-adv-x="592" 
d="M0 1341l186 -913h1v-428h168v428h1l186 913h-168l-103 -506l-103 506h-168zM197 1433h134l88 268h-134z" />
    <glyph glyph-name="Thorn" unicode="&#xde;" horiz-adv-x="478" 
d="M0 0h168v200h119q98 0 126 82q11 32 14 85q1 20 1 48v501q0 28 -1 48q-3 52 -14 85q-28 82 -126 82h-119v210h-168v-1341zM168 372v587h37q15 1 29 -7q29 -17 29 -62v-449q0 -45 -29 -62q-14 -8 -29 -7h-37z" />
    <glyph glyph-name="germandbls" unicode="&#xdf;" horiz-adv-x="507" 
d="M0 -1h168l1 1125q0 29 17 49q18 20 43 20q24 0 42 -20q17 -20 17 -49v-225q0 -57 -22 -97l-5 -11l-6 -11q-7 -14 -11 -28q-12 -35 -12 -77t11 -80q5 -15 11 -30l6 -14l6 -12q22 -46 22 -84l-1 -235q0 -29 -17 -51q-17 -21 -41 -21l-10 1v-171l10 -1q94 0 161 77t67 186
v215q0 50 -13 94q-5 17 -12 34l-6 15l-7 13q-18 38 -18 64q0 20 14 45q42 77 42 172v209q0 108 -67 185t-161 77q-95 0 -162 -77t-67 -185v-1102z" />
    <glyph glyph-name="agrave" unicode="&#xe0;" 
d="M0 203q0 -66 35 -121q35 -54 92 -82q47 -23 99 -23q51 0 98 23h129v802q0 93 -67 160q-66 66 -160 66q-93 0 -160 -66q-66 -67 -66 -160v-170h170v190q0 23 17 39q16 16 39 16t40 -16q16 -16 16 -39v-161l-109 -62q-33 -20 -44 -28q-29 -20 -52 -42q-62 -60 -74 -133
q-3 -18 -3 -34v-159zM78 1390l88 -268h134l-88 268h-134zM170 183v141q-2 19 9 44q20 51 82 85l11 6l10 6v-282q0 -6 -2 -13q-3 -12 -11 -22l-2 -2l-4 -4l-4 -3l-4 -3l-4 -3l-5 -1l-6 -2l-3 -1l-11 -1q-23 0 -39 16q-17 16 -17 39z" />
    <glyph glyph-name="aacute" unicode="&#xe1;" 
d="M0 203q0 -66 35 -121q35 -54 92 -82q47 -23 99 -23q51 0 98 23h129v802q0 93 -67 160q-66 66 -160 66q-93 0 -160 -66q-66 -67 -66 -160v-170h170v190q0 23 17 39q16 16 39 16t40 -16q16 -16 16 -39v-161l-109 -62q-33 -20 -44 -28q-29 -20 -52 -42q-62 -60 -74 -133
q-3 -18 -3 -34v-159zM152 1124h134l88 268h-134zM170 183v141q-2 19 9 44q20 51 82 85l11 6l10 6v-282q0 -6 -2 -13q-3 -12 -11 -22l-2 -2l-4 -4l-4 -3l-4 -3l-4 -3l-5 -1l-6 -2l-3 -1l-11 -1q-23 0 -39 16q-17 16 -17 39z" />
    <glyph glyph-name="acircumflex" unicode="&#xe2;" 
d="M0 203q0 -66 35 -121q35 -54 92 -82q47 -23 99 -23q51 0 98 23h129v802q0 93 -67 160q-66 66 -160 66q-93 0 -160 -66q-66 -67 -66 -160v-170h170v190q0 23 17 39q16 16 39 16t40 -16q16 -16 16 -39v-161l-109 -62q-33 -20 -44 -28q-29 -20 -52 -42q-62 -60 -74 -133
q-3 -18 -3 -34v-159zM50 1121h126l50 112l50 -112h127l-120 268h-113zM170 183v141q-2 19 9 44q20 51 82 85l11 6l10 6v-282q0 -6 -2 -13q-3 -12 -11 -22l-2 -2l-4 -4l-4 -3l-4 -3l-4 -3l-5 -1l-6 -2l-3 -1l-11 -1q-23 0 -39 16q-17 16 -17 39z" />
    <glyph glyph-name="atilde" unicode="&#xe3;" 
d="M0 203q0 -66 36 -121q34 -54 91 -82q48 -23 99 -23t98 23h129v802q0 93 -67 160q-66 66 -160 66q-93 0 -159 -66q-67 -67 -67 -160v-170h171v190q0 23 16 39t39 16q24 0 40 -16t16 -39v-161l-109 -62q-33 -20 -44 -28q-29 -20 -52 -42q-62 -60 -74 -133q-3 -18 -3 -34
v-159zM0 1220l1 -2l2 -3l6 -10q10 -15 23 -28q37 -40 83 -50q29 -6 59 1q40 8 78 38q19 15 35 18q6 2 12 1h4h2q19 -4 40 -22q7 -7 13 -14q5 -6 7 -10l88 54l-1 2l-3 4q-3 5 -7 10q-12 15 -26 29q-43 39 -93 48q-29 5 -59 -1q-39 -9 -76 -38q-29 -23 -51 -19q-14 3 -29 18
q-6 6 -11 13q-4 5 -6 9l-1 2l-1 2zM171 183v141q-2 19 8 44q21 51 82 85l11 6l10 6v-282q0 -6 -1 -13q-3 -12 -12 -22l-2 -2l-4 -4l-3 -3l-5 -3l-4 -3l-4 -1l-7 -2l-3 -1l-11 -1q-23 0 -39 16t-16 39z" />
    <glyph glyph-name="adieresis" unicode="&#xe4;" horiz-adv-x="534" 
d="M0 1124v168h168v-168h-168zM16 203q0 -66 35 -121q34 -54 92 -82q47 -23 99 -23q51 0 98 23h128v802q0 93 -66 160q-67 66 -160 66q-94 0 -160 -66q-66 -67 -66 -160v-170h170v190q0 23 16 39q17 16 40 16t39 -16q17 -16 17 -39v-161l-109 -62q-33 -20 -44 -28
q-30 -20 -52 -42q-63 -60 -74 -133q-3 -18 -3 -34v-159zM186 183v141q-2 19 8 44q21 51 83 85l10 6l11 6v-282q0 -6 -2 -13q-3 -12 -11 -22l-2 -2l-5 -4l-3 -3l-4 -3l-5 -3l-4 -1l-6 -2l-4 -1l-10 -1q-23 0 -40 16q-16 16 -16 39zM316 1124v168h168v-168h-168z" />
    <glyph glyph-name="aring" unicode="&#xe5;" 
d="M0 203q0 -66 35 -121q35 -54 92 -82q47 -23 99 -23q51 0 98 23h129v802q0 93 -67 160q-66 66 -160 66q-93 0 -160 -66q-66 -67 -66 -160v-170h170v190q0 23 17 39q16 16 39 16t40 -16q16 -16 16 -39v-161l-109 -62q-33 -20 -44 -28q-29 -20 -52 -42q-62 -60 -74 -133
q-3 -18 -3 -34v-159zM93 1248q2 -52 39 -89q39 -39 94 -39t94 39q38 37 39 89q-1 52 -39 89q-39 39 -94 39t-94 -39q-37 -37 -39 -89zM170 183v141q-2 19 9 44q20 51 82 85l11 6l10 6v-282q0 -6 -2 -13q-3 -12 -11 -22l-2 -2l-4 -4l-4 -3l-4 -3l-4 -3l-5 -1l-6 -2l-3 -1
l-11 -1q-23 0 -39 16q-17 16 -17 39zM207 1244v8q0 8 6 13q5 6 13 6t13 -6q6 -5 6 -13v-8q0 -8 -6 -13q-5 -6 -13 -6t-13 6q-6 5 -6 13z" />
    <glyph glyph-name="ae" unicode="&#xe6;" horiz-adv-x="787" 
d="M0 203q0 -66 35 -121q35 -54 92 -82q47 -23 99 -23q51 0 98 23q21 6 39 32q62 -55 147 -55q94 0 160 66q67 67 67 160v183h-171v-203q0 -23 -16 -39t-40 -16q-23 0 -39 16t-16 39v276h282v343q0 93 -67 160q-66 66 -160 66q-81 0 -141 -50q-61 50 -143 50q-93 0 -160 -66
q-66 -67 -66 -160v-170h170v190q0 23 17 39q16 16 39 16t40 -16q16 -16 16 -39v-161l-109 -62q-33 -20 -44 -28q-29 -20 -52 -42q-62 -60 -74 -133q-3 -18 -3 -34v-159zM170 183v141q-2 19 9 44q20 51 82 85l11 6l10 6v-282q0 -6 -2 -13q-3 -12 -11 -22l-2 -2l-4 -4l-4 -3
l-4 -3l-4 -3l-5 -1l-6 -2l-3 -1l-11 -1q-23 0 -39 16q-17 16 -17 39zM455 627v195q0 23 16 39t39 16q24 0 40 -16t16 -39v-195h-111z" />
    <glyph glyph-name="ccedilla" unicode="&#xe7;" 
d="M0 203q0 -93 66 -160q42 -41 94 -57v-128q109 16 109 -53v-6q0 -67 -110 -52v-82q241 -20 241 139v31q0 100 -112 118v32q55 15 98 58q67 67 67 160v183h-171v-203q0 -23 -16 -39q-17 -16 -40 -16t-39 16q-17 16 -17 39v639q0 23 17 39q16 16 39 16t40 -16q16 -16 16 -39
v-188h171v168q0 93 -67 160q-66 66 -160 66q-93 0 -160 -66q-66 -67 -66 -160v-599z" />
    <glyph glyph-name="egrave" unicode="&#xe8;" 
d="M0 203q0 -93 66 -160q67 -66 160 -66q94 0 160 66q67 67 67 160v183h-171v-203q0 -23 -16 -39q-17 -16 -40 -16t-39 16q-17 16 -17 39v276h283v343q0 93 -67 160q-66 66 -160 66q-93 0 -160 -66q-66 -67 -66 -160v-599zM78 1389l88 -268h134l-88 268h-134zM170 627v195
q0 23 17 39q16 16 39 16t40 -16q16 -16 16 -39v-195h-112z" />
    <glyph glyph-name="eacute" unicode="&#xe9;" 
d="M0 203q0 -93 66 -160q67 -66 160 -66q94 0 160 66q67 67 67 160v183h-171v-203q0 -23 -16 -39q-17 -16 -40 -16t-39 16q-17 16 -17 39v276h283v343q0 93 -67 160q-66 66 -160 66q-93 0 -160 -66q-66 -67 -66 -160v-599zM152 1124h134l88 268h-134zM170 627v195
q0 23 17 39q16 16 39 16t40 -16q16 -16 16 -39v-195h-112z" />
    <glyph glyph-name="ecircumflex" unicode="&#xea;" 
d="M0 203q0 -93 66 -160q67 -66 160 -66q94 0 160 66q67 67 67 160v183h-171v-203q0 -23 -16 -39q-17 -16 -40 -16t-39 16q-17 16 -17 39v276h283v343q0 93 -67 160q-66 66 -160 66q-93 0 -160 -66q-66 -67 -66 -160v-599zM50 1121h126l50 112l50 -112h127l-120 268h-113z
M170 627v195q0 23 17 39q16 16 39 16t40 -16q16 -16 16 -39v-195h-112z" />
    <glyph glyph-name="edieresis" unicode="&#xeb;" horiz-adv-x="534" 
d="M0 1124v168h168v-168h-168zM16 203q0 -93 66 -160q66 -66 160 -66q93 0 160 66q66 67 66 160v183h-170v-203q0 -23 -17 -39q-16 -16 -39 -16t-40 16q-16 16 -16 39v276h282v343q0 93 -66 160q-67 66 -160 66q-94 0 -160 -66q-66 -67 -66 -160v-599zM186 627v195
q0 23 16 39q17 16 40 16t39 -16q17 -16 17 -39v-195h-112zM316 1124v168h168v-168h-168z" />
    <glyph glyph-name="igrave" unicode="&#xec;" horiz-adv-x="282" 
d="M0 1389l88 -268h134l-88 268h-134zM64 0v1006h168v-1006h-168z" />
    <glyph glyph-name="iacute" unicode="&#xed;" horiz-adv-x="282" 
d="M0 0v1006h168v-1006h-168zM10 1124h134l88 268h-134z" />
    <glyph glyph-name="icircumflex" unicode="&#xee;" horiz-adv-x="403" 
d="M0 1120h126l50 112l50 -112h127l-120 268h-113zM93 0v1006h167v-1006h-167z" />
    <glyph glyph-name="idieresis" unicode="&#xef;" horiz-adv-x="534" 
d="M0 1121v168h168v-168h-168zM158 0v1006h168v-1006h-168zM316 1121v168h168v-168h-168z" />
    <glyph glyph-name="eth" unicode="&#xf0;" 
d="M0 202q0 -93 66 -160q67 -66 160 -66q94 0 160 66q67 67 67 160v865q0 114 -123 210l42 74l-65 36l-38 -68q-41 25 -90 48l-81 -133q55 -26 94 -51l-38 -68l64 -36l32 56q32 -35 32 -69v-32q-28 7 -56 7q-93 0 -160 -66q-66 -67 -66 -160v-613zM170 182v652q0 24 17 40
q16 16 39 16t40 -16q16 -16 16 -40v-652q0 -23 -16 -39q-17 -16 -40 -16t-39 16q-17 16 -17 39z" />
    <glyph glyph-name="ntilde" unicode="&#xf1;" 
d="M0 0h171v821q0 23 16 40q16 16 39 16q24 0 40 -16q16 -17 16 -40v-821h171v801q0 227 -159 227q-51 0 -94 -25q-14 -8 -25 -17q-3 -3 -6 -5q-2 -2 -1 -3v28h-168v-1006zM0 1219l1 -2l2 -3l6 -10q10 -15 23 -28q37 -40 83 -50q29 -6 59 1q40 8 78 38q19 15 35 18q6 2 12 1
h4h2q19 -4 40 -22q7 -7 13 -14q5 -6 7 -10l88 54l-1 2l-3 4q-3 5 -7 10q-12 15 -26 29q-43 39 -93 48q-29 5 -59 -1q-39 -9 -76 -38q-29 -23 -51 -19q-14 3 -29 18q-6 6 -11 13q-4 5 -6 9l-1 2l-1 2z" />
    <glyph glyph-name="ograve" unicode="&#xf2;" 
d="M0 203q0 -93 66 -160q67 -66 160 -66q94 0 160 66q67 67 67 160v599q0 93 -67 160q-66 66 -160 66q-93 0 -160 -66q-66 -67 -66 -160v-599zM78 1389l88 -268h134l-88 268h-134zM170 183v639q0 23 17 39q16 16 39 16t40 -16q16 -16 16 -39v-639q0 -23 -16 -39
q-17 -16 -40 -16t-39 16q-17 16 -17 39z" />
    <glyph glyph-name="oacute" unicode="&#xf3;" 
d="M0 203q0 -93 66 -160q67 -66 160 -66q94 0 160 66q67 67 67 160v599q0 93 -67 160q-66 66 -160 66q-93 0 -160 -66q-66 -67 -66 -160v-599zM152 1124h134l88 268h-134zM170 183v639q0 23 17 39q16 16 39 16t40 -16q16 -16 16 -39v-639q0 -23 -16 -39q-17 -16 -40 -16
t-39 16q-17 16 -17 39z" />
    <glyph glyph-name="ocircumflex" unicode="&#xf4;" 
d="M0 203q0 -93 66 -160q67 -66 160 -66q94 0 160 66q67 67 67 160v599q0 93 -67 160q-66 66 -160 66q-93 0 -160 -66q-66 -67 -66 -160v-599zM50 1121h126l50 112l50 -112h127l-120 268h-113zM170 183v639q0 23 17 39q16 16 39 16t40 -16q16 -16 16 -39v-639q0 -23 -16 -39
q-17 -16 -40 -16t-39 16q-17 16 -17 39z" />
    <glyph glyph-name="otilde" unicode="&#xf5;" 
d="M0 203q0 -93 67 -160q66 -66 159 -66q94 0 160 66q67 67 67 160v599q0 93 -67 160q-66 66 -160 66q-93 0 -159 -66q-67 -67 -67 -160v-599zM0 1220l1 -2l2 -3l6 -10q10 -15 23 -28q37 -40 83 -50q29 -6 59 1q40 8 78 38q19 15 35 18q6 2 12 1h4h2q19 -4 40 -22
q7 -7 13 -14q5 -6 7 -10l88 54l-1 2l-3 4q-3 5 -7 10q-12 15 -26 29q-43 39 -93 48q-29 5 -59 -1q-39 -9 -76 -38q-29 -23 -51 -19q-14 3 -29 18q-6 6 -11 13q-4 5 -6 9l-1 2l-1 2zM171 183v639q0 23 16 39t39 16q24 0 40 -16t16 -39v-639q0 -23 -16 -39t-40 -16
q-23 0 -39 16t-16 39z" />
    <glyph glyph-name="odieresis" unicode="&#xf6;" horiz-adv-x="534" 
d="M0 1121v168h168v-168h-168zM16 203q0 -93 66 -160q66 -66 160 -66q93 0 160 66q66 67 66 160v599q0 93 -66 160q-67 66 -160 66q-94 0 -160 -66q-66 -67 -66 -160v-599zM186 183v639q0 23 16 39q17 16 40 16t39 -16q17 -16 17 -39v-639q0 -23 -17 -39q-16 -16 -39 -16
t-40 16q-16 16 -16 39zM316 1121v168h168v-168h-168z" />
    <glyph glyph-name="divide" unicode="&#xf7;" horiz-adv-x="446" 
d="M0 666v74h396v-74h-396zM137 489h122v122h-122v-122zM137 796h122v122h-122v-122z" />
    <glyph glyph-name="oslash" unicode="&#xf8;" horiz-adv-x="578" 
d="M0 183v194l38 33v392q0 93 66 160q67 66 160 66q94 0 160 -66t67 -157l37 32v-194l-37 -32v-408q0 -93 -67 -160q-66 -66 -160 -66q-93 0 -160 66q-66 67 -66 160v13zM208 183q0 -23 17 -39q16 -16 39 -16q24 0 40 16t16 39v279l-112 -98v-181zM208 558l112 98v166
q0 23 -16 39q-17 16 -40 16t-39 -16q-17 -16 -17 -39v-264z" />
    <glyph glyph-name="ugrave" unicode="&#xf9;" 
d="M0 203q0 -226 159 -226q51 0 94 24q14 8 24 17q4 3 6 6l2 2v-27h168v1006h-171v-822q0 -23 -16 -39q-17 -16 -40 -16t-39 16t-16 39v822h-171v-802zM78 1365l88 -268h134l-88 268h-134z" />
    <glyph glyph-name="uacute" unicode="&#xfa;" 
d="M0 203q0 -226 159 -226q51 0 94 24q14 8 24 17q4 3 6 6l2 2v-27h168v1006h-171v-822q0 -23 -16 -39q-17 -16 -40 -16t-39 16t-16 39v822h-171v-802zM152 1105h134l88 268h-134z" />
    <glyph glyph-name="ucircumflex" unicode="&#xfb;" 
d="M0 203q0 -226 159 -226q51 0 94 24q14 8 24 17q4 3 6 6l2 2v-27h168v1006h-171v-822q0 -23 -16 -39q-17 -16 -40 -16t-39 16t-16 39v822h-171v-802zM50 1098h126l50 112l50 -112h127l-120 268h-113z" />
    <glyph glyph-name="udieresis" unicode="&#xfc;" 
d="M0 203q0 -226 159 -226q51 0 94 24q14 8 24 17q4 3 6 6l2 2v-27h168v1006h-171v-822q0 -23 -16 -39q-17 -16 -40 -16t-39 16t-16 39v822h-171v-802zM0 1105v168h168v-168h-168zM285 1105v168h168v-168h-168z" />
    <glyph glyph-name="yacute" unicode="&#xfd;" horiz-adv-x="553" 
d="M0 1006l168 -1006h1l-67 -401h168l233 1407h-168l-83 -504l-84 504h-168zM177 1105h135l88 268h-135z" />
    <glyph glyph-name="thorn" unicode="&#xfe;" 
d="M0 -337h168v321q29 -8 58 -8q94 0 160 67q67 66 67 160v598q0 94 -67 160q-66 66 -160 66q-30 0 -58 -7v321h-168v-1678zM170 183v638q0 23 17 39q16 17 39 17t40 -17q16 -16 16 -39v-638q0 -23 -16 -40q-17 -16 -40 -16t-39 16q-17 17 -17 40z" />
    <glyph glyph-name="ydieresis" unicode="&#xff;" horiz-adv-x="553" 
d="M0 1006l168 -1006h1l-67 -401h168l233 1407h-168l-83 -504l-84 504h-168zM10 1104v168h167v-168h-167zM326 1104v168h167v-168h-167z" />
    <glyph glyph-name="circumflex" unicode="&#x2c6;" horiz-adv-x="403" 
d="M0 1436h126l50 112l50 -112h127l-120 268h-113z" />
    <glyph glyph-name="tilde" unicode="&#x2dc;" 
d="M0 1531l1 -2l2 -3l6 -10q10 -15 23 -28q37 -40 83 -50q29 -6 59 1q40 8 78 38q19 15 35 18q6 2 12 1h4h2q19 -4 40 -22q7 -7 13 -14q5 -6 7 -10l88 54l-1 2l-3 4q-3 5 -7 10q-12 15 -26 29q-43 39 -93 48q-29 5 -59 -1q-39 -9 -76 -38q-29 -23 -51 -19q-14 3 -29 18
q-6 6 -11 13q-4 5 -6 9l-1 2l-1 2z" />
    <glyph glyph-name="uni2000" unicode="&#x2000;" horiz-adv-x="852" 
 />
    <glyph glyph-name="uni2001" unicode="&#x2001;" horiz-adv-x="1704" 
 />
    <glyph glyph-name="uni2002" unicode="&#x2002;" horiz-adv-x="852" 
 />
    <glyph glyph-name="uni2003" unicode="&#x2003;" horiz-adv-x="1704" 
 />
    <glyph glyph-name="uni2004" unicode="&#x2004;" horiz-adv-x="568" 
 />
    <glyph glyph-name="uni2005" unicode="&#x2005;" horiz-adv-x="426" 
 />
    <glyph glyph-name="uni2006" unicode="&#x2006;" horiz-adv-x="284" 
 />
    <glyph glyph-name="uni2007" unicode="&#x2007;" horiz-adv-x="284" 
 />
    <glyph glyph-name="uni2008" unicode="&#x2008;" horiz-adv-x="213" 
 />
    <glyph glyph-name="uni2009" unicode="&#x2009;" horiz-adv-x="340" 
 />
    <glyph glyph-name="uni200A" unicode="&#x200a;" horiz-adv-x="94" 
 />
    <glyph glyph-name="uni2010" unicode="&#x2010;" horiz-adv-x="339" 
d="M0 666v74h289v-74h-289z" />
    <glyph glyph-name="uni2011" unicode="&#x2011;" horiz-adv-x="339" 
d="M0 666v74h289v-74h-289z" />
    <glyph glyph-name="figuredash" unicode="&#x2012;" horiz-adv-x="339" 
d="M0 666v74h289v-74h-289z" />
    <glyph glyph-name="endash" unicode="&#x2013;" horiz-adv-x="538" 
d="M0 666v74h488v-74h-488z" />
    <glyph glyph-name="emdash" unicode="&#x2014;" horiz-adv-x="734" 
d="M0 666v74h684v-74h-684z" />
    <glyph glyph-name="quoteleft" unicode="&#x2018;" horiz-adv-x="218" 
d="M0 1104v168l62 70h64l-20 -70h62v-168h-168z" />
    <glyph glyph-name="quoteright" unicode="&#x2019;" horiz-adv-x="218" 
d="M0 1174v168h168v-168l-62 -70h-64l20 70h-62z" />
    <glyph glyph-name="quotesinglbase" unicode="&#x201a;" horiz-adv-x="218" 
d="M0 0v168h168v-168l-62 -70h-64l20 70h-62z" />
    <glyph glyph-name="quotedblleft" unicode="&#x201c;" horiz-adv-x="447" 
d="M0 1104v168l62 70h64l-20 -70h62v-168h-168zM229 1104v168l62 70h64l-20 -70h62v-168h-168z" />
    <glyph glyph-name="quotedblright" unicode="&#x201d;" horiz-adv-x="447" 
d="M0 1174v168h168v-168l-62 -70h-64l20 70h-62zM229 1174v168h168v-168l-62 -70h-64l20 70h-62z" />
    <glyph glyph-name="quotedblbase" unicode="&#x201e;" horiz-adv-x="447" 
d="M0 0v168h168v-168l-62 -70h-64l20 70h-62zM229 0v168h168v-168l-62 -70h-64l20 70h-62z" />
    <glyph glyph-name="bullet" unicode="&#x2022;" horiz-adv-x="282" 
d="M0 663q0 57 34 97.5t82 40.5t82 -40.5t34 -97.5t-34 -97t-82 -40t-82 40t-34 97z" />
    <glyph glyph-name="ellipsis" unicode="&#x2026;" horiz-adv-x="718" 
d="M0 0v168h168v-168h-168zM250 0v168h168v-168h-168zM500 0v168h168v-168h-168z" />
    <glyph glyph-name="uni202F" unicode="&#x202f;" horiz-adv-x="340" 
 />
    <glyph glyph-name="guilsinglleft" unicode="&#x2039;" horiz-adv-x="372" 
d="M0 704l42 53l228 281l52 -41l-237 -293l237 -292l-52 -42l-228 282z" />
    <glyph glyph-name="guilsinglright" unicode="&#x203a;" horiz-adv-x="372" 
d="M0 412l237 292l-237 293l52 41l228 -281l42 -53l-42 -52l-228 -282z" />
    <glyph glyph-name="uni205F" unicode="&#x205f;" horiz-adv-x="426" 
 />
    <glyph glyph-name="Euro" unicode="&#x20ac;" horiz-adv-x="397" 
d="M0 813h53v-204q0 -61 43 -104q44 -43 104 -43q61 0 104 43t43 104v101h-110v-114q0 -15 -11 -25q-11 -11 -26 -11t-25 11q-11 10 -11 25v217h123l20 70h-143v57h123l20 70h-143v219q0 15 11 26q10 10 25 10t26 -10q11 -11 11 -26v-113h110v100q0 61 -43 104t-104 43
q-60 0 -104 -43q-43 -43 -43 -104v-206h-33l-20 -70h53v-57h-33z" />
    <glyph glyph-name="trademark" unicode="&#x2122;" horiz-adv-x="520" 
d="M0 1274h50v-469h76v469h50v67h-176v-67zM186 805h75v229l37 -229h59l38 235v-235h75v536h-76l-66 -282l-67 282h-75v-536z" />
    <glyph glyph-name="uni25FC" unicode="&#x25fc;" horiz-adv-x="1004" 
d="M0 0v1005h1005v-1005h-1005z" />
    </font>
</defs>
</svg>
