<svg width="60" height="60" viewBox="0 0 60 60" fill="none" xmlns="http://www.w3.org/2000/svg">
<path d="M52.5 35V37.5C52.5 42.275 49.825 46.425 45.875 48.525L47.5 55H42.5L41.25 50H18.75L17.5 55H12.5L14.125 48.525C12.123 47.463 10.4483 45.8753 9.28098 43.9328C8.11369 41.9903 7.49796 39.7663 7.5 37.5V35H5V30H50V12.5C50 11.837 49.7366 11.2011 49.2678 10.7322C48.7989 10.2634 48.163 10 47.5 10C46.25 10 45.3 10.85 45 11.975C46.575 13.325 47.5 15.325 47.5 17.5H32.5C32.5 15.5109 33.2902 13.6032 34.6967 12.1967C36.1032 10.7902 38.0109 10 40 10H40.425C41.45 7.1 44.225 5 47.5 5C49.4891 5 51.3968 5.79018 52.8033 7.1967C54.2098 8.60322 55 10.5109 55 12.5V35H52.5ZM47.5 35H12.5V37.5C12.5 39.4891 13.2902 41.3968 14.6967 42.8033C16.1032 44.2098 18.0109 45 20 45H40C41.9891 45 43.8968 44.2098 45.3033 42.8033C46.7098 41.3968 47.5 39.4891 47.5 37.5V35Z" fill="#013F22"/>
</svg>
