<svg width="60" height="60" viewBox="0 0 60 60" fill="none" xmlns="http://www.w3.org/2000/svg">
<path d="M2.5 47.5V10H7.5V35H27.5V15H47.5C50.25 15 52.6042 15.9792 54.5625 17.9375C56.5208 19.8958 57.5 22.25 57.5 25V47.5H52.5V40H7.5V47.5H2.5ZM17.5 32.5C15.4167 32.5 13.6458 31.7708 12.1875 30.3125C10.7292 28.8542 10 27.0833 10 25C10 22.9167 10.7292 21.1458 12.1875 19.6875C13.6458 18.2292 15.4167 17.5 17.5 17.5C19.5833 17.5 21.3542 18.2292 22.8125 19.6875C24.2708 21.1458 25 22.9167 25 25C25 27.0833 24.2708 28.8542 22.8125 30.3125C21.3542 31.7708 19.5833 32.5 17.5 32.5ZM32.5 35H52.5V25C52.5 23.625 52.01 22.4475 51.03 21.4675C50.05 20.4875 48.8733 19.9983 47.5 20H32.5V35ZM17.5 27.5C18.2083 27.5 18.8025 27.26 19.2825 26.78C19.7625 26.3 20.0017 25.7067 20 25C20 24.2917 19.76 23.6975 19.28 23.2175C18.8 22.7375 18.2067 22.4983 17.5 22.5C16.7917 22.5 16.1975 22.74 15.7175 23.22C15.2375 23.7 14.9983 24.2933 15 25C15 25.7083 15.24 26.3025 15.72 26.7825C16.2 27.2625 16.7933 27.5017 17.5 27.5ZM17.5 27.5C16.7917 27.5 16.1975 27.26 15.7175 26.78C15.2375 26.3 14.9983 25.7067 15 25C15 24.2917 15.24 23.6975 15.72 23.2175C16.2 22.7375 16.7933 22.4983 17.5 22.5C18.2083 22.5 18.8025 22.74 19.2825 23.22C19.7625 23.7 20.0017 24.2933 20 25C20 25.7083 19.76 26.3025 19.28 26.7825C18.8 27.2625 18.2067 27.5017 17.5 27.5ZM32.5 20H47.5C48.875 20 50.0525 20.49 51.0325 21.47C52.0125 22.45 52.5017 23.6267 52.5 25V35H32.5V20Z" fill="#013F22"/>
</svg>
