<svg width="60" height="60" viewBox="0 0 60 60" fill="none" xmlns="http://www.w3.org/2000/svg">
<path d="M48.75 7.5H11.25C10.2554 7.5 9.30161 7.89509 8.59835 8.59835C7.89509 9.30161 7.5 10.2554 7.5 11.25V48.75C7.5 49.7446 7.89509 50.6984 8.59835 51.4016C9.30161 52.1049 10.2554 52.5 11.25 52.5H48.75C49.7446 52.5 50.6984 52.1049 51.4016 51.4016C52.1049 50.6984 52.5 49.7446 52.5 48.75V11.25C52.5 10.2554 52.1049 9.30161 51.4016 8.59835C50.6984 7.89509 49.7446 7.5 48.75 7.5ZM41.25 26.25V48.75H31.875V26.25H41.25ZM28.125 48.75H18.75V26.25H28.125V48.75ZM48.75 48.75H45V24.375C45 23.8777 44.8025 23.4008 44.4508 23.0492C44.0992 22.6975 43.6223 22.5 43.125 22.5H16.875C16.3777 22.5 15.9008 22.6975 15.5492 23.0492C15.1975 23.4008 15 23.8777 15 24.375V48.75H11.25V11.25H48.75V48.75ZM35.625 16.875C35.625 17.3723 35.4275 17.8492 35.0758 18.2008C34.7242 18.5525 34.2473 18.75 33.75 18.75H26.25C25.7527 18.75 25.2758 18.5525 24.9242 18.2008C24.5725 17.8492 24.375 17.3723 24.375 16.875C24.375 16.3777 24.5725 15.9008 24.9242 15.5492C25.2758 15.1975 25.7527 15 26.25 15H33.75C34.2473 15 34.7242 15.1975 35.0758 15.5492C35.4275 15.9008 35.625 16.3777 35.625 16.875Z" fill="#013F22"/>
</svg>
