<svg width="60" height="60" viewBox="0 0 60 60" fill="none" xmlns="http://www.w3.org/2000/svg">
<path d="M41.25 20.625L38.6063 23.2687L43.4438 28.125H16.5562L21.3937 23.2687L18.75 20.625L9.375 30L18.75 39.375L21.3937 36.7313L16.5562 31.875H43.4438L38.6063 36.7313L41.25 39.375L50.625 30L41.25 20.625Z" fill="#013F22"/>
<path d="M52.5 56.25H7.5C6.50574 56.249 5.55249 55.8536 4.84945 55.1506C4.1464 54.4475 3.75099 53.4943 3.75 52.5V7.5C3.75099 6.50574 4.1464 5.55249 4.84945 4.84945C5.55249 4.1464 6.50574 3.75099 7.5 3.75H52.5C53.4943 3.75099 54.4475 4.1464 55.1506 4.84945C55.8536 5.55249 56.249 6.50574 56.25 7.5V52.5C56.249 53.4943 55.8536 54.4475 55.1506 55.1506C54.4475 55.8536 53.4943 56.249 52.5 56.25ZM7.5 7.5V52.5H52.5V7.5H7.5Z" fill="#013F22"/>
</svg>
