<svg width="60" height="60" viewBox="0 0 60 60" fill="none" xmlns="http://www.w3.org/2000/svg">
<path d="M45 35V32.5C45 31.1739 45.5268 29.9021 46.4645 28.9645C47.4021 28.0268 48.6739 27.5 50 27.5C51.3261 27.5 52.5979 28.0268 53.5355 28.9645C54.4732 29.9021 55 31.1739 55 32.5V45M47.5 47.5H7.5C6.83696 47.5 6.20107 47.2366 5.73223 46.7678C5.26339 46.2989 5 45.663 5 45V32.5C5 31.1739 5.52678 29.9021 6.46447 28.9645C7.40215 28.0268 8.67392 27.5 10 27.5C11.3261 27.5 12.5979 28.0268 13.5355 28.9645C14.4732 29.9021 15 31.1739 15 32.5V35H35" stroke="#013F22" stroke-width="2" stroke-linecap="round" stroke-linejoin="round"/>
<path d="M10 27.5V20C10 17.295 11.4325 14.925 13.58 13.605M22.5 12.5H42.5C44.4891 12.5 46.3968 13.2902 47.8033 14.6967C49.2098 16.1032 50 18.0109 50 20V27.5M30 12.5V20M30 30V35M7.5 7.5L52.5 52.5" stroke="#013F22" stroke-width="2" stroke-linecap="round" stroke-linejoin="round"/>
</svg>
