<svg width="60" height="60" viewBox="0 0 60 60" fill="none" xmlns="http://www.w3.org/2000/svg">
<path d="M50 22.5V15C50 13.6739 49.4732 12.4021 48.5355 11.4645C47.5979 10.5268 46.3261 10 45 10H15C13.6739 10 12.4021 10.5268 11.4645 11.4645C10.5268 12.4021 10 13.6739 10 15V22.5" stroke="#013F22" stroke-width="2" stroke-linecap="round" stroke-linejoin="round"/>
<path d="M10 45C8.67392 45 7.40215 44.4732 6.46447 43.5355C5.52678 42.5979 5 41.3261 5 40V27.5C5 26.1739 5.52678 24.9021 6.46447 23.9645C7.40215 23.0268 8.67392 22.5 10 22.5C11.3261 22.5 12.5979 23.0268 13.5355 23.9645C14.4732 24.9021 15 26.1739 15 27.5V32.5H45V27.5C45 26.1739 45.5268 24.9021 46.4645 23.9645C47.4021 23.0268 48.6739 22.5 50 22.5C51.3261 22.5 52.5979 23.0268 53.5355 23.9645C54.4732 24.9021 55 26.1739 55 27.5V40C55 41.3261 54.4732 42.5979 53.5355 43.5355C52.5979 44.4732 51.3261 45 50 45M10 45H50M10 45V50M50 45V50M30 10V32.5" stroke="#013F22" stroke-width="2" stroke-linecap="round" stroke-linejoin="round"/>
</svg>
