<svg width="60" height="60" viewBox="0 0 60 60" fill="none" xmlns="http://www.w3.org/2000/svg">
<path d="M6 9C6 8.20435 6.31607 7.44129 6.87868 6.87868C7.44129 6.31607 8.20435 6 9 6C9.79565 6 10.5587 6.31607 11.1213 6.87868C11.6839 7.44129 12 8.20435 12 9H51C51.7956 9 52.5587 9.31607 53.1213 9.87868C53.6839 10.4413 54 11.2044 54 12C54 12.7956 53.6839 13.5587 53.1213 14.1213C52.5587 14.6839 51.7956 15 51 15H12V52.5C12 52.8978 11.842 53.2794 11.5607 53.5607C11.2794 53.842 10.8978 54 10.5 54H7.5C7.10218 54 6.72064 53.842 6.43934 53.5607C6.15804 53.2794 6 52.8978 6 52.5V9ZM15 19.5C15 19.1022 15.158 18.7206 15.4393 18.4393C15.7206 18.158 16.1022 18 16.5 18H49.5C49.8978 18 50.2794 18.158 50.5607 18.4393C50.842 18.7206 51 19.1022 51 19.5V40.5C51 42.4891 50.2098 44.3968 48.8033 45.8033C47.3968 47.2098 45.4891 48 43.5 48H22.5C20.5109 48 18.6032 47.2098 17.1967 45.8033C15.7902 44.3968 15 42.4891 15 40.5V19.5ZM24 40.5C24 40.8978 24.158 41.2794 24.4393 41.5607C24.7206 41.842 25.1022 42 25.5 42H28.5C28.8978 42 29.2794 41.842 29.5607 41.5607C29.842 41.2794 30 40.8978 30 40.5V37.5C30 37.1022 30.158 36.7206 30.4393 36.4393C30.7206 36.158 31.1022 36 31.5 36H34.5C34.8978 36 35.2794 36.158 35.5607 36.4393C35.842 36.7206 36 37.1022 36 37.5V40.5C36 40.8978 36.158 41.2794 36.4393 41.5607C36.7206 41.842 37.1022 42 37.5 42H40.5C40.8978 42 41.2794 41.842 41.5607 41.5607C41.842 41.2794 42 40.8978 42 40.5V32.85C42.0001 32.426 41.9103 32.0067 41.7366 31.6199C41.5628 31.2331 41.3091 30.8876 40.992 30.606L33.996 24.39C33.7215 24.1462 33.3671 24.0116 33 24.0116C32.6329 24.0116 32.2785 24.1462 32.004 24.39L25.008 30.6C24.6902 30.8822 24.436 31.2288 24.2622 31.6167C24.0884 32.0046 23.999 32.425 24 32.85V40.5Z" fill="#013F22"/>
</svg>
